<?xml version="1.0" encoding="UTF-8"?>
<svg xmlns="http://www.w3.org/2000/svg" xmlns:xlink="http://www.w3.org/1999/xlink" width="30px" height="30px" viewBox="0 0 30 33" version="1.1">
<g id="surface1">
<path style=" stroke:none;fill-rule:nonzero;fill:rgb(36.078432%,55.29412%,73.725492%);fill-opacity:1;" d="M 29.949219 9.707031 C 29.949219 9.152344 29.828125 8.664062 29.582031 8.246094 C 29.34375 7.832031 28.984375 7.484375 28.5 7.210938 C 24.511719 4.964844 20.519531 2.722656 16.535156 0.472656 C 15.460938 -0.132812 14.417969 -0.109375 13.351562 0.503906 C 11.765625 1.417969 3.820312 5.871094 1.453125 7.210938 C 0.476562 7.761719 0 8.609375 0 9.707031 C 0 14.226562 0 18.746094 0 23.265625 C 0 23.808594 0.117188 24.289062 0.351562 24.699219 C 0.589844 25.125 0.957031 25.480469 1.449219 25.761719 C 3.816406 27.101562 11.765625 31.550781 13.351562 32.46875 C 14.417969 33.082031 15.460938 33.105469 16.535156 32.5 C 20.523438 30.25 24.511719 28.007812 28.5 25.761719 C 28.996094 25.480469 29.359375 25.125 29.601562 24.699219 C 29.835938 24.285156 29.949219 23.808594 29.949219 23.265625 C 29.949219 23.265625 29.949219 14.226562 29.949219 9.707031 "/>
<path style=" stroke:none;fill-rule:nonzero;fill:rgb(10.196079%,27.450982%,45.490196%);fill-opacity:1;" d="M 15.019531 16.441406 L 0.351562 24.699219 C 0.589844 25.125 0.957031 25.480469 1.449219 25.761719 C 3.816406 27.101562 11.765625 31.550781 13.351562 32.46875 C 14.417969 33.082031 15.460938 33.105469 16.535156 32.5 C 20.523438 30.25 24.511719 28.007812 28.5 25.761719 C 28.996094 25.480469 29.359375 25.125 29.601562 24.699219 L 15.019531 16.441406 "/>
<path style=" stroke:none;fill-rule:nonzero;fill:rgb(10.196079%,27.450982%,45.490196%);fill-opacity:1;" d="M 10.675781 18.886719 C 11.53125 20.34375 13.132812 21.328125 14.976562 21.328125 C 16.828125 21.328125 18.441406 20.332031 19.292969 18.859375 L 15.019531 16.441406 L 10.675781 18.886719 "/>
<path style=" stroke:none;fill-rule:nonzero;fill:rgb(10.588235%,34.901962%,55.686277%);fill-opacity:1;" d="M 29.949219 9.707031 C 29.949219 9.152344 29.828125 8.664062 29.582031 8.246094 L 15.019531 16.441406 L 29.601562 24.699219 C 29.835938 24.285156 29.949219 23.808594 29.949219 23.265625 C 29.949219 23.265625 29.949219 14.226562 29.949219 9.707031 "/>
<path style=" stroke:none;fill-rule:nonzero;fill:rgb(100%,100%,100%);fill-opacity:1;" d="M 29.148438 17.03125 L 28.007812 17.03125 L 28.007812 18.144531 L 26.867188 18.144531 L 26.867188 17.03125 L 25.730469 17.03125 L 25.730469 15.917969 L 26.867188 15.917969 L 26.867188 14.804688 L 28.007812 14.804688 L 28.007812 15.917969 L 29.148438 15.917969 L 29.148438 17.03125 M 24.992188 17.03125 L 23.851562 17.03125 L 23.851562 18.144531 L 22.710938 18.144531 L 22.710938 17.03125 L 21.574219 17.03125 L 21.574219 15.917969 L 22.710938 15.917969 L 22.710938 14.804688 L 23.851562 14.804688 L 23.851562 15.917969 L 24.992188 15.917969 L 24.992188 17.03125 "/>
<path style=" stroke:none;fill-rule:nonzero;fill:rgb(100%,100%,100%);fill-opacity:1;" d="M 19.292969 18.859375 C 18.441406 20.332031 16.828125 21.328125 14.976562 21.328125 C 13.132812 21.328125 11.53125 20.34375 10.675781 18.886719 C 10.246094 18.15625 10.023438 17.328125 10.023438 16.484375 C 10.023438 13.8125 12.238281 11.644531 14.976562 11.644531 C 16.804688 11.644531 18.402344 12.613281 19.257812 14.058594 L 23.589844 11.621094 C 21.867188 8.714844 18.65625 6.761719 14.976562 6.761719 C 9.480469 6.761719 5.027344 11.117188 5.027344 16.484375 C 5.027344 18.246094 5.507812 19.898438 6.347656 21.324219 C 8.0625 24.246094 11.285156 26.210938 14.976562 26.210938 C 18.671875 26.210938 21.898438 24.238281 23.613281 21.308594 L 19.292969 18.859375 "/>
</g>
</svg>
