<?xml version="1.0" encoding="UTF-8"?>
<svg xmlns="http://www.w3.org/2000/svg" xmlns:xlink="http://www.w3.org/1999/xlink" width="30px" height="30px" viewBox="0 0 30 30" version="1.1">
<g id="surface1">
<path style=" stroke:none;fill-rule:nonzero;fill:rgb(20%,60.392159%,94.117647%);fill-opacity:1;" d="M 26.636719 0 L 3.363281 0 C 1.519531 0 0 1.519531 0 3.363281 L 0 26.636719 C 0 28.480469 1.519531 30 3.363281 30 L 26.636719 30 C 28.480469 30 30 28.480469 30 26.636719 L 30 3.363281 C 30 1.519531 28.480469 0 26.636719 0 Z M 23.597656 19.039062 C 23.597656 19.320312 23.355469 19.441406 23.074219 19.558594 C 21.957031 20.042969 20.757812 20.476562 19.472656 20.476562 C 17.671875 20.476562 16.835938 19.359375 14.671875 19.359375 C 13.113281 19.359375 11.472656 19.921875 10.152344 20.519531 C 10.070312 20.558594 9.992188 20.558594 9.910156 20.597656 L 9.910156 23.636719 C 9.910156 23.757812 9.910156 23.878906 9.871094 23.960938 L 9.871094 24.039062 C 9.710938 24.601562 9.1875 24.996094 8.589844 24.996094 C 7.835938 24.996094 7.230469 24.394531 7.230469 23.636719 L 7.230469 9 C 6.710938 8.597656 6.355469 7.960938 6.355469 7.238281 C 6.355469 6 7.351562 4.996094 8.597656 4.996094 C 9.835938 4.996094 10.839844 5.992188 10.839844 7.238281 C 10.839844 7.960938 10.519531 8.597656 9.964844 9 L 9.964844 10.238281 C 10.085938 10.199219 10.207031 10.160156 10.324219 10.078125 C 11.566406 9.554688 13.042969 9.121094 14.445312 9.121094 C 15.964844 9.121094 17.164062 9.523438 18.523438 10.039062 C 18.804688 10.160156 19.085938 10.199219 19.398438 10.199219 C 20.917969 10.199219 22.601562 9.121094 23.003906 9.121094 C 23.324219 9.121094 23.605469 9.363281 23.605469 9.644531 L 23.605469 19.039062 Z M 23.597656 19.039062 "/>
</g>
</svg>
